<?xml version="1.0" encoding="utf-8"?>
<!-- Generator: Adobe Illustrator 16.0.0, SVG Export Plug-In . SVG Version: 6.00 Build 0)  -->
<!DOCTYPE svg PUBLIC "-//W3C//DTD SVG 1.1//EN" "http://www.w3.org/Graphics/SVG/1.1/DTD/svg11.dtd">
<svg version="1.1" id="Layer_1" xmlns="http://www.w3.org/2000/svg" xmlns:xlink="http://www.w3.org/1999/xlink" x="0px" y="0px"
	 width="386.523px" height="164.746px" viewBox="0 0 386.523 164.746" enable-background="new 0 0 386.523 164.746"
	 xml:space="preserve">
<g>
	<path d="M41.113,3.32v126.465h25v31.641H0V3.32H41.113z"/>
	<path d="M166.992,95.898c0,15.886-0.375,27.133-1.123,33.74c-0.749,6.608-3.093,12.646-7.031,18.115
		c-3.94,5.469-9.262,9.668-15.967,12.598c-6.706,2.93-14.519,4.395-23.438,4.395c-8.464,0-16.064-1.384-22.803-4.15
		s-12.158-6.917-16.26-12.451c-4.102-5.533-6.543-11.556-7.324-18.066c-0.781-6.51-1.172-17.903-1.172-34.18V68.848
		c0-15.884,0.374-27.132,1.123-33.74c0.748-6.607,3.091-12.646,7.031-18.115c3.938-5.469,9.261-9.668,15.967-12.598
		C102.701,1.465,110.513,0,119.434,0c8.462,0,16.064,1.384,22.803,4.15c6.738,2.768,12.158,6.918,16.26,12.451
		c4.102,5.534,6.543,11.557,7.324,18.066c0.781,6.511,1.172,17.905,1.172,34.18V95.898z M125.879,43.945
		c0-7.356-0.407-12.061-1.221-14.111c-0.815-2.051-2.49-3.076-5.029-3.076c-2.148,0-3.793,0.83-4.932,2.49
		c-1.14,1.66-1.709,6.56-1.709,14.697v73.828c0,9.18,0.374,14.844,1.123,16.992c0.748,2.148,2.49,3.223,5.225,3.223
		c2.798,0,4.59-1.236,5.371-3.711c0.781-2.474,1.172-8.365,1.172-17.676V43.945z"/>
	<path d="M276.66,61.523h-41.113V47.168c0-9.048-0.391-14.712-1.172-16.992c-0.781-2.278-2.637-3.418-5.566-3.418
		c-2.539,0-4.265,0.977-5.176,2.93c-0.912,1.953-1.367,6.967-1.367,15.039v75.879c0,7.097,0.455,11.768,1.367,14.014
		c0.911,2.246,2.734,3.369,5.469,3.369c2.994,0,5.029-1.27,6.104-3.809s1.611-7.486,1.611-14.844v-18.75h-8.301V76.563h48.145
		v84.863h-25.836l-3.803-11.328c-2.802,4.883-6.337,8.545-10.604,10.986c-4.268,2.441-9.3,3.662-15.099,3.662
		c-6.907,0-13.374-1.677-19.399-5.029c-6.027-3.353-10.604-7.503-13.732-12.451c-3.128-4.947-5.083-10.14-5.864-15.576
		c-0.781-5.436-1.172-13.59-1.172-24.463V60.254c0-15.103,0.813-26.074,2.441-32.91c1.626-6.836,6.299-13.101,14.014-18.799
		C205.322,2.849,215.299,0,227.539,0c12.044,0,22.037,2.475,29.98,7.422c7.942,4.948,13.118,10.825,15.527,17.627
		c2.408,6.804,3.613,16.684,3.613,29.639V61.523z"/>
	<path d="M386.523,95.898c0,15.886-0.375,27.133-1.123,33.74c-0.749,6.608-3.093,12.646-7.031,18.115
		c-3.939,5.469-9.262,9.668-15.967,12.598c-6.706,2.93-14.519,4.395-23.438,4.395c-8.464,0-16.064-1.384-22.803-4.15
		s-12.158-6.917-16.26-12.451c-4.102-5.533-6.543-11.556-7.324-18.066c-0.781-6.51-1.172-17.903-1.172-34.18V68.848
		c0-15.884,0.374-27.132,1.123-33.74c0.748-6.607,3.092-12.646,7.031-18.115c3.938-5.469,9.261-9.668,15.967-12.598
		C322.232,1.465,330.045,0,338.965,0c8.463,0,16.064,1.384,22.803,4.15c6.738,2.768,12.158,6.918,16.26,12.451
		c4.102,5.534,6.543,11.557,7.324,18.066c0.781,6.511,1.172,17.905,1.172,34.18V95.898z M345.41,43.945
		c0-7.356-0.407-12.061-1.221-14.111c-0.814-2.051-2.49-3.076-5.029-3.076c-2.148,0-3.793,0.83-4.932,2.49
		c-1.14,1.66-1.709,6.56-1.709,14.697v73.828c0,9.18,0.374,14.844,1.123,16.992c0.748,2.148,2.49,3.223,5.225,3.223
		c2.799,0,4.59-1.236,5.371-3.711c0.781-2.474,1.172-8.365,1.172-17.676V43.945z"/>
</g>
</svg>
