<?xml version="1.0" encoding="utf-8"?>
<!-- Generator: Adobe Illustrator 16.0.0, SVG Export Plug-In . SVG Version: 6.00 Build 0)  -->
<!DOCTYPE svg PUBLIC "-//W3C//DTD SVG 1.1//EN" "http://www.w3.org/Graphics/SVG/1.1/DTD/svg11.dtd">
<svg version="1.1" id="Layer_1" xmlns="http://www.w3.org/2000/svg" xmlns:xlink="http://www.w3.org/1999/xlink" x="0px" y="0px"
	 width="1200px" height="514px" viewBox="0 0 1200 514" enable-background="new 0 0 1200 514" xml:space="preserve">
<rect y="0" fill="none" width="1200" height="514"/>
<g id="g578" transform="scale(16.667)">
	<rect id="rect124" x="17.939" y="4.2" fill="#000066" width="35.999" height="18"/>
	<g id="g584">
		<path id="path146" fill="#FFFFFF" d="M17.939,4.2v2.012l31.974,15.987h4.025v-2.012L21.964,4.2H17.939L17.939,4.2z M53.939,4.2
			v2.012L21.964,22.2h-4.025v-2.012L49.914,4.2H53.939z"/>
		<path id="path136" fill="#FFFFFF" d="M32.939,4.2v18h6v-18H32.939z M17.939,10.2v6h35.999v-6H17.939z"/>
		<path id="path141" fill="#CC0000" d="M17.939,11.4V15h35.999v-3.6H17.939z M34.139,4.2v18h3.6v-18H34.139z"/>
		<path id="path150" fill="#CC0000" d="M17.939,22.2l12-6h2.683l-12,6H17.939z M17.939,4.2l12,6h-2.683l-9.317-4.658V4.2z
			 M39.256,10.2l12-6h2.683l-12,6H39.256z M53.939,22.2l-12-6h2.683l9.317,4.658V22.2z"/>
	</g>
</g>
</svg>
