<svg xmlns="http://www.w3.org/2000/svg" width="1200" height="514">
    <path fill="none" d="M0 0h1200v514H0z" />
    <path fill="#006" d="M298.99 70.001h599.995v300.006H298.989z" />
    <path fill="#FFF"
        d="M298.99 70.001v33.534L831.9 369.991h67.085v-33.534L366.074 70h-67.085zm600.011 0v33.534L366.074 370.007h-67.085v-33.534L831.917 70.001H899z" />
    <path fill="#FFF"
        d="M548.994 70.001v300.006h100.002V70.001H548.994zM298.99 170.003v100.002h599.996V170.003H298.989z" />
    <path fill="#C00"
        d="M298.99 190.004v60.001h599.995v-60.001H298.989zM568.994 70v300.006h60V70.001h-60zM298.99 370.007l200.003-100.002h44.718L343.707 370.007h-44.718zm0-300.006l200.003 100.002h-44.717L298.989 92.37V70zm355.29 100.002L854.284 70.001H899L698.997 170.003H654.28zM899 370.007L698.997 270.005h44.718L899 347.64v22.367z" />
    </svg>
